<?xml version="1.0" standalone="no"?>
<!DOCTYPE svg PUBLIC "-//W3C//DTD SVG 20010904//EN"
 "http://www.w3.org/TR/2001/REC-SVG-20010904/DTD/svg10.dtd">
<svg version="1.0" xmlns="http://www.w3.org/2000/svg"
 width="512.000000pt" height="512.000000pt" viewBox="0 0 512.000000 512.000000"
 preserveAspectRatio="xMidYMid meet">

<g transform="translate(0.000000,512.000000) scale(0.100000,-0.100000)"
fill="#000000" stroke="none">
<path d="M4083 5098 c-11 -13 -42 -87 -69 -165 -44 -130 -47 -144 -34 -168 17
-32 56 -43 89 -24 20 11 35 42 73 149 26 74 48 149 48 167 0 58 -68 84 -107
41z"/>
<path d="M3412 4974 c-15 -10 -22 -25 -22 -48 0 -36 72 -193 98 -212 40 -31
102 0 102 51 0 14 -20 66 -45 115 -55 109 -83 129 -133 94z"/>
<path d="M3679 4656 c-168 -47 -319 -204 -359 -375 -18 -78 -8 -231 19 -301
90 -223 327 -359 558 -320 207 34 376 197 419 402 56 262 -118 538 -376 597
-61 14 -204 12 -261 -3z"/>
<path d="M4484 4559 c-93 -42 -118 -60 -128 -95 -8 -28 28 -74 58 -74 30 0
174 66 204 93 38 35 24 91 -29 110 -9 3 -56 -13 -105 -34z"/>
<path d="M2880 4520 c-23 -23 -26 -58 -7 -84 14 -18 277 -116 315 -116 48 0
79 64 49 104 -14 19 -276 116 -314 116 -12 0 -32 -9 -43 -20z"/>
<path d="M4405 3985 c-30 -29 -32 -58 -7 -83 22 -22 272 -112 311 -112 51 0
79 61 49 103 -12 16 -283 117 -314 117 -8 0 -26 -11 -39 -25z"/>
<path d="M3102 3895 c-105 -51 -127 -77 -101 -123 28 -50 54 -49 164 4 79 39
102 55 109 77 12 34 -19 81 -55 84 -13 1 -66 -18 -117 -42z"/>
<path d="M4080 3617 c-49 -25 -48 -55 6 -163 39 -79 55 -101 77 -109 33 -11
55 0 77 38 14 25 12 31 -34 126 -33 66 -57 103 -73 110 -29 13 -23 13 -53 -2z"/>
<path d="M3559 3581 c-17 -13 -39 -61 -74 -165 -47 -138 -49 -147 -35 -173 20
-35 77 -44 101 -16 20 23 109 276 109 309 0 29 -32 64 -59 64 -10 0 -29 -8
-42 -19z"/>
<path d="M675 2678 c-6 -17 -95 -376 -95 -383 0 -3 123 -5 274 -5 l274 0 30
163 c17 89 34 179 38 200 l6 37 -261 0 c-200 0 -263 -3 -266 -12z"/>
<path d="M1335 2668 c-3 -13 -20 -103 -38 -200 l-34 -178 278 0 278 0 6 33 c6
35 45 347 45 360 0 4 -119 7 -265 7 l-265 0 -5 -22z"/>
<path d="M2005 2678 c-4 -15 -45 -349 -45 -372 0 -14 28 -16 265 -16 l265 0 0
200 0 200 -240 0 c-184 0 -242 -3 -245 -12z"/>
<path d="M2630 2490 l0 -200 265 0 265 0 0 23 c-1 12 -11 101 -23 197 l-22
175 -243 3 -242 2 0 -200z"/>
<path d="M3250 2683 c0 -13 39 -325 45 -360 l6 -33 278 0 278 0 -34 178 c-18
97 -35 187 -38 200 l-5 22 -265 0 c-146 0 -265 -3 -265 -7z"/>
<path d="M3924 2653 c4 -21 21 -111 38 -200 l30 -163 274 0 c151 0 274 3 274
8 0 4 -22 93 -48 197 l-48 190 -263 3 -263 2 6 -37z"/>
<path d="M501 1983 c-23 -93 -44 -176 -47 -186 -5 -16 11 -17 287 -15 l292 3
34 175 c18 96 33 178 33 183 0 4 -125 7 -279 7 l-279 0 -41 -167z"/>
<path d="M1236 2138 c-5 -15 -66 -342 -66 -352 0 -3 133 -6 295 -6 229 0 295
3 295 13 0 6 9 82 20 167 11 85 20 163 20 173 0 16 -20 17 -280 17 -216 0
-282 -3 -284 -12z"/>
<path d="M1936 2123 c-3 -16 -12 -89 -21 -163 -9 -74 -18 -145 -21 -157 l-4
-23 300 0 300 0 0 185 0 185 -274 0 -274 0 -6 -27z"/>
<path d="M2630 1965 l0 -185 300 0 300 0 -4 23 c-3 12 -12 83 -21 157 -9 74
-18 147 -21 163 l-6 27 -274 0 -274 0 0 -185z"/>
<path d="M3320 2133 c0 -10 9 -88 20 -173 11 -85 20 -161 20 -167 0 -10 66
-13 295 -13 162 0 295 3 295 8 0 4 -15 86 -33 182 l-34 175 -281 3 c-264 2
-282 1 -282 -15z"/>
<path d="M4020 2143 c0 -5 15 -87 33 -183 l34 -175 292 -3 c276 -2 292 -1 287
15 -3 10 -24 93 -47 186 l-41 167 -279 0 c-154 0 -279 -3 -279 -7z"/>
<path d="M415 1638 c-9 -25 -105 -417 -105 -428 0 -7 97 -9 307 -8 l308 3 41
218 c22 119 38 219 36 222 -3 3 -135 5 -294 5 -222 0 -290 -3 -293 -12z"/>
<path d="M1106 1448 c-21 -112 -40 -213 -43 -226 l-5 -22 313 2 314 3 21 165
c12 91 24 191 28 223 l7 57 -298 0 -299 0 -38 -202z"/>
<path d="M1875 1638 c-2 -7 -13 -94 -25 -193 -11 -99 -24 -195 -27 -212 l-5
-33 336 0 336 0 0 225 0 225 -305 0 c-236 0 -307 -3 -310 -12z"/>
<path d="M2630 1425 l0 -225 335 0 336 0 -7 48 c-3 26 -16 126 -28 222 l-21
175 -308 3 -307 2 0 -225z"/>
<path d="M3386 1593 c4 -32 16 -132 28 -223 l21 -165 314 -3 313 -2 -5 22 c-3
13 -22 114 -43 226 l-38 202 -299 0 -298 0 7 -57z"/>
<path d="M4119 1645 c-3 -3 13 -103 35 -222 l41 -218 308 -3 c242 -2 307 0
307 10 0 7 -24 108 -53 223 l-53 210 -290 3 c-160 1 -293 0 -295 -3z"/>
<path d="M2250 825 l0 -245 310 0 310 0 0 245 0 245 -310 0 -310 0 0 -245z"/>
<path d="M1640 365 l0 -75 920 0 920 0 0 75 0 75 -920 0 -920 0 0 -75z"/>
<path d="M1640 80 l0 -80 920 0 920 0 0 80 0 80 -920 0 -920 0 0 -80z"/>
</g>
</svg>
